<svg xmlns="http://www.w3.org/2000/svg" viewBox="0 0 100 100" fill="none">
  <defs>
    <linearGradient id="stroke" x1="50" y1="8" x2="50" y2="94" gradientUnits="userSpaceOnUse">
      <stop stop-color="#C084FC"/>
      <stop offset=".45" stop-color="#6366F1"/>
      <stop offset=".75" stop-color="#3B82F6"/>
      <stop offset="1" stop-color="#00D1FF"/>
    </linearGradient>
  </defs>
  <g stroke="url(#stroke)" stroke-width="2.2" stroke-linecap="round" opacity=".8">
    <path d="M48 12 77 20M48 12 21 25M21 25 9 51M21 25 36 34M36 34 26 60M36 34 40 91M9 51 26 60M26 60 18 79M26 60 40 91M18 79 40 91M40 91 69 88M69 88 83 75M69 88 64 79M64 79 83 75M48 12 58 26M77 20 58 26M58 26 36 34M36 34 24 42M24 42 9 51M24 42 26 60"/>
  </g>
  <g fill="url(#stroke)">
    <circle cx="48" cy="12" r="6"/><circle cx="77" cy="20" r="5.5"/>
    <circle cx="21" cy="25" r="5.5"/><circle cx="36" cy="34" r="6"/>
    <circle cx="9" cy="51" r="5.5"/><circle cx="26" cy="60" r="5.5"/>
    <circle cx="18" cy="79" r="5"/><circle cx="40" cy="91" r="5.5"/>
    <circle cx="69" cy="88" r="5"/><circle cx="83" cy="75" r="5.5"/>
  </g>
</svg>
